<svg viewBox="0 0 90 32" fill="none" xmlns="http://www.w3.org/2000/svg">
<g id="BIDLI_Logo_white_without_claim 1" clip-path="url(#clip0_1600_14381)">
<g id="Group">
<g id="Group_2">
<path id="Vector" d="M11.3132 1.94059C8.72725 -0.6454 4.53229 -0.6454 1.9463 1.94059L1.94182 1.94508C-0.644179 4.53107 -0.644179 8.72603 1.94182 11.312L6.62977 16L16.0012 6.62855L11.3132 1.94059Z" fill="white"/>
<path id="Vector_2" d="M30.0627 1.9452L30.0582 1.94072C27.4722 -0.645278 23.2773 -0.645278 20.6913 1.94072L16.0011 6.62867L25.3725 16.0001L30.0605 11.3121C32.6487 8.72615 32.6487 4.53119 30.0627 1.9452Z" fill="white"/>
<path id="Vector_3" d="M6.63019 15.9999L1.94447 20.6856C-0.643763 23.2738 -0.643763 27.4688 1.94447 30.057C4.53271 32.6453 8.72767 32.6453 11.3181 30.057L16.0039 25.3713H6.63019V15.9999Z" fill="white"/>
<path id="Vector_4" d="M30.0605 20.6857L25.3725 16V25.3714H16.0011L20.6868 30.0571C23.275 32.6454 27.47 32.6454 30.0582 30.0571C32.6465 27.4689 32.6465 23.2739 30.0605 20.6857Z" fill="white"/>
</g>
<g id="Group_3">
<path id="Vector_5" d="M52.4268 13.8687C53.648 15.1931 54.2464 16.8043 54.2464 18.727C54.2464 20.6497 53.648 22.2855 52.4268 23.6099C51.2077 24.9343 49.7511 25.5841 48.0368 25.5841C46.3741 25.5841 45.0766 25.0642 44.1668 23.9998V25.2211H40.2699V7.03845H44.1668V13.4541C45.0766 12.3897 46.3741 11.8698 48.0368 11.8698C49.7511 11.8698 51.2077 12.5443 52.4268 13.8687ZM47.2593 21.8956C48.1691 21.8956 48.8951 21.6088 49.4665 21.0396C50.0626 20.4681 50.3494 19.6883 50.3494 18.727C50.3494 17.7656 50.0626 16.9858 49.4665 16.4144C48.8951 15.8429 48.1668 15.5583 47.2593 15.5583C46.3495 15.5583 45.6234 15.8429 45.0251 16.4144C44.4537 16.9858 44.1668 17.7656 44.1668 18.727C44.1668 19.6883 44.4537 20.4681 45.0251 21.0396C45.6212 21.611 46.3495 21.8956 47.2593 21.8956Z" fill="white"/>
<path id="Vector_6" d="M56.7423 10.4134C55.8325 9.47893 55.8325 8.02458 56.7423 7.11478C57.6767 6.18033 59.1311 6.18033 60.0409 7.11478C60.9753 8.02458 60.9753 9.47893 60.0409 10.4134C59.1311 11.3232 57.6767 11.3232 56.7423 10.4134ZM56.4555 12.233H60.3524V25.2212H56.4555V12.233Z" fill="white"/>
<path id="Vector_7" d="M72.6391 7.03857H76.536V25.2212H72.6391V23.9999C71.7293 25.0643 70.4318 25.5842 68.7691 25.5842C67.0548 25.5842 65.6004 24.9344 64.3791 23.61C63.1578 22.2856 62.5618 20.6498 62.5618 18.7271C62.5618 16.8044 63.1578 15.1932 64.3791 13.8688C65.6004 12.5445 67.0548 11.8677 68.7691 11.8677C70.4318 11.8677 71.7315 12.3876 72.6391 13.452V7.03857ZM69.5489 21.8957C70.4587 21.8957 71.2116 21.6089 71.7831 21.0397C72.3545 20.4683 72.6391 19.6884 72.6391 18.7271C72.6391 17.7657 72.3545 16.9859 71.7831 16.4145C71.2116 15.8431 70.4587 15.5585 69.5489 15.5585C68.6391 15.5585 67.8861 15.8431 67.3147 16.4145C66.7433 16.9859 66.4587 17.7657 66.4587 18.7271C66.4587 19.6884 66.7433 20.4683 67.3147 21.0397C67.8861 21.6111 68.6391 21.8957 69.5489 21.8957Z" fill="white"/>
<path id="Vector_8" d="M83.2928 7.03845H79.3959V25.2211H83.2928V7.03845Z" fill="white"/>
<path id="Vector_9" d="M85.6368 10.4605C84.727 9.52605 84.727 8.0717 85.6368 7.1619C86.5713 6.22745 88.0256 6.22745 88.9354 7.1619C89.8699 8.0717 89.8699 9.52605 88.9354 10.4605C88.0279 11.3703 86.5713 11.3703 85.6368 10.4605ZM85.35 12.2779H89.2469V25.2661H85.35V12.2779Z" fill="white"/>
</g>
</g>
</g>
<defs>
<clipPath id="clip0_1600_14381">
<rect width="89.6359" height="32" fill="white"/>
</clipPath>
</defs>
</svg>
